<svg viewBox="0 0 340 100" class="w-full max-w-md mx-auto my-2" xmlns="http://www.w3.org/2000/svg">
  <text x="170" y="14" text-anchor="middle" font-size="11" fill="#1E104E" font-weight="bold">جدول العد للأعداد العشرية</text>
  <rect x="5" y="20" width="330" height="20" rx="3" fill="#1E104E"/>
  <text x="72" y="34" text-anchor="middle" font-size="9" fill="white" font-weight="bold">الجزء الصحيح</text>
  <text x="278" y="34" text-anchor="middle" font-size="9" fill="white" font-weight="bold">الجزء العشري</text>
  <line x1="142" y1="20" x2="142" y2="40" stroke="white" stroke-width="1"/>
  <rect x="5" y="42" width="330" height="16" fill="#FF653F" opacity="0.15"/>
  <text x="170" y="54" text-anchor="middle" font-size="10" fill="#1E104E" font-weight="bold">6451 , 105</text>
  <rect x="5" y="60" width="330" height="20" rx="3" fill="#f3f4f6" stroke="#e5e7eb" stroke-width="1"/>
  <line x1="45" y1="60" x2="45" y2="80" stroke="#e5e7eb" stroke-width="1"/>
  <line x1="85" y1="60" x2="85" y2="80" stroke="#e5e7eb" stroke-width="1"/>
  <line x1="125" y1="60" x2="125" y2="80" stroke="#e5e7eb" stroke-width="1"/>
  <line x1="210" y1="60" x2="210" y2="80" stroke="#e5e7eb" stroke-width="1"/>
  <line x1="255" y1="60" x2="255" y2="80" stroke="#e5e7eb" stroke-width="1"/>
  <line x1="300" y1="60" x2="300" y2="80" stroke="#e5e7eb" stroke-width="1"/>
  <text x="25" y="74" text-anchor="middle" font-size="8" fill="#6b7280">آلاف</text>
  <text x="65" y="74" text-anchor="middle" font-size="8" fill="#6b7280">مئات</text>
  <text x="105" y="74" text-anchor="middle" font-size="8" fill="#6b7280">عشرات</text>
  <text x="142" y="74" text-anchor="middle" font-size="8" fill="#6b7280">وحدات</text>
  <text x="187" y="74" text-anchor="middle" font-size="10" fill="#FF653F" font-weight="bold">,</text>
  <text x="232" y="74" text-anchor="middle" font-size="8" fill="#FF653F" font-weight="bold">أعشار</text>
  <text x="277" y="74" text-anchor="middle" font-size="8" fill="#FF653F" font-weight="bold">أجزاء المئة</text>
  <text x="322" y="74" text-anchor="middle" font-size="8" fill="#FF653F" font-weight="bold">أجزاء الألف</text>
  <rect x="5" y="82" width="330" height="16" fill="white" stroke="#e5e7eb" stroke-width="1"/>
  <line x1="45" y1="82" x2="45" y2="98" stroke="#e5e7eb" stroke-width="1"/>
  <line x1="85" y1="82" x2="85" y2="98" stroke="#e5e7eb" stroke-width="1"/>
  <line x1="125" y1="82" x2="125" y2="98" stroke="#e5e7eb" stroke-width="1"/>
  <line x1="210" y1="82" x2="210" y2="98" stroke="#e5e7eb" stroke-width="1"/>
  <line x1="255" y1="82" x2="255" y2="98" stroke="#e5e7eb" stroke-width="1"/>
  <line x1="300" y1="82" x2="300" y2="98" stroke="#e5e7eb" stroke-width="1"/>
  <text x="25" y="94" text-anchor="middle" font-size="10" fill="#1E104E" font-weight="bold">6</text>
  <text x="65" y="94" text-anchor="middle" font-size="10" fill="#1E104E" font-weight="bold">4</text>
  <text x="105" y="94" text-anchor="middle" font-size="10" fill="#1E104E" font-weight="bold">5</text>
  <text x="142" y="94" text-anchor="middle" font-size="10" fill="#1E104E" font-weight="bold">1</text>
  <text x="187" y="94" text-anchor="middle" font-size="10" fill="#FF653F" font-weight="bold">,</text>
  <text x="232" y="94" text-anchor="middle" font-size="10" fill="#1E104E" font-weight="bold">1</text>
  <text x="277" y="94" text-anchor="middle" font-size="10" fill="#1E104E" font-weight="bold">0</text>
  <text x="322" y="94" text-anchor="middle" font-size="10" fill="#1E104E" font-weight="bold">5</text>
</svg>