<svg viewBox="0 0 340 100" class="w-full max-w-md mx-auto my-2" xmlns="http://www.w3.org/2000/svg">
  <text x="170" y="14" text-anchor="middle" font-size="11" fill="#1E104E" font-weight="bold">جدول العد للأعداد العشرية</text>
  <rect x="5" y="20" width="330" height="20" rx="3" fill="#1E104E"/>
  <text x="62" y="34" text-anchor="middle" font-size="9" fill="white" font-weight="bold">الجزء الصحيح</text>
  <text x="290" y="34" text-anchor="middle" font-size="9" fill="white" font-weight="bold">الجزء العشري</text>
  <line x1="145" y1="20" x2="145" y2="40" stroke="white" stroke-width="1"/>
  <rect x="5" y="42" width="330" height="16" fill="#FF653F" opacity="0.15"/>
  <text x="170" y="54" text-anchor="middle" font-size="10" fill="#1E104E" font-weight="bold">6451 , 105</text>
  <rect x="5" y="60" width="330" height="20" rx="3" fill="#f3f4f6" stroke="#e5e7eb" stroke-width="1"/>
  <line x1="50" y1="60" x2="50" y2="80" stroke="#e5e7eb" stroke-width="1"/>
  <line x1="95" y1="60" x2="95" y2="80" stroke="#e5e7eb" stroke-width="1"/>
  <line x1="140" y1="60" x2="140" y2="80" stroke="#e5e7eb" stroke-width="1"/>
  <line x1="145" y1="60" x2="145" y2="80" stroke="#FF653F" stroke-width="2"/>
  <line x1="185" y1="60" x2="185" y2="80" stroke="#e5e7eb" stroke-width="1"/>
  <line x1="225" y1="60" x2="225" y2="80" stroke="#e5e7eb" stroke-width="1"/>
  <line x1="265" y1="60" x2="265" y2="80" stroke="#e5e7eb" stroke-width="1"/>
  <line x1="305" y1="60" x2="305" y2="80" stroke="#e5e7eb" stroke-width="1"/>
  <text x="27" y="74" text-anchor="middle" font-size="8" fill="#6b7280">آلاف</text>
  <text x="72" y="74" text-anchor="middle" font-size="8" fill="#6b7280">مئات</text>
  <text x="117" y="74" text-anchor="middle" font-size="8" fill="#6b7280">عشرات</text>
  <text x="162" y="74" text-anchor="middle" font-size="10" fill="#FF653F" font-weight="bold">,</text>
  <text x="205" y="74" text-anchor="middle" font-size="8" fill="#FF653F" font-weight="bold">أعشار</text>
  <text x="245" y="74" text-anchor="middle" font-size="8" fill="#FF653F" font-weight="bold">أجزاء المئة</text>
  <text x="285" y="74" text-anchor="middle" font-size="8" fill="#FF653F" font-weight="bold">أجزاء الألف</text>
  <rect x="5" y="82" width="330" height="16" fill="white" stroke="#e5e7eb" stroke-width="1"/>
  <line x1="50" y1="82" x2="50" y2="98" stroke="#e5e7eb" stroke-width="1"/>
  <line x1="95" y1="82" x2="95" y2="98" stroke="#e5e7eb" stroke-width="1"/>
  <line x1="140" y1="82" x2="140" y2="98" stroke="#e5e7eb" stroke-width="1"/>
  <line x1="145" y1="82" x2="145" y2="98" stroke="#FF653F" stroke-width="2"/>
  <line x1="185" y1="82" x2="185" y2="98" stroke="#e5e7eb" stroke-width="1"/>
  <line x1="225" y1="82" x2="225" y2="98" stroke="#e5e7eb" stroke-width="1"/>
  <line x1="265" y1="82" x2="265" y2="98" stroke="#e5e7eb" stroke-width="1"/>
  <text x="27" y="94" text-anchor="middle" font-size="10" fill="#1E104E" font-weight="bold">6</text>
  <text x="72" y="94" text-anchor="middle" font-size="10" fill="#1E104E" font-weight="bold">4</text>
  <text x="117" y="94" text-anchor="middle" font-size="10" fill="#1E104E" font-weight="bold">5</text>
  <text x="162" y="94" text-anchor="middle" font-size="10" fill="#FF653F" font-weight="bold">,</text>
  <text x="205" y="94" text-anchor="middle" font-size="10" fill="#1E104E" font-weight="bold">1</text>
  <text x="245" y="94" text-anchor="middle" font-size="10" fill="#1E104E" font-weight="bold">0</text>
  <text x="285" y="94" text-anchor="middle" font-size="10" fill="#1E104E" font-weight="bold">5</text>
</svg>