<svg viewBox="0 0 280 200" class="w-full max-w-[260px] mx-auto my-2" xmlns="http://www.w3.org/2000/svg">
  <rect x="40" y="40" width="200" height="120" fill="#1E104E" fill-opacity="0.08" stroke="#1E104E" stroke-width="2.5"/>

  <circle cx="40" cy="40" r="3" fill="#1E104E"/>
  <circle cx="240" cy="40" r="3" fill="#1E104E"/>
  <circle cx="240" cy="160" r="3" fill="#1E104E"/>
  <circle cx="40" cy="160" r="3" fill="#1E104E"/>

  <text x="28" y="32" font-size="13" fill="#1E104E" font-weight="bold" text-anchor="middle" dominant-baseline="central">A</text>
  <text x="252" y="32" font-size="13" fill="#1E104E" font-weight="bold" text-anchor="middle" dominant-baseline="central">B</text>
  <text x="252" y="175" font-size="13" fill="#1E104E" font-weight="bold" text-anchor="middle" dominant-baseline="central">C</text>
  <text x="28" y="175" font-size="13" fill="#1E104E" font-weight="bold" text-anchor="middle" dominant-baseline="central">D</text>

  <!-- Right angle marks -->
  <rect x="40" y="40" width="12" height="12" fill="none" stroke="#FF653F" stroke-width="2"/>
  <rect x="238" y="40" width="12" height="12" fill="none" stroke="#FF653F" stroke-width="2"/>
  <rect x="238" y="148" width="12" height="12" fill="none" stroke="#FF653F" stroke-width="2"/>
  <rect x="40" y="148" width="12" height="12" fill="none" stroke="#FF653F" stroke-width="2"/>

  <!-- Equal sides marks -->
  <text x="140" y="33" font-size="12" fill="#FF653F" font-weight="bold" text-anchor="middle" dominant-baseline="central">AB = BC = CD = DA</text>

  <line x1="40" y1="40" x2="240" y2="160" stroke="#6D28D9" stroke-width="1.5" stroke-dasharray="6,3"/>
  <line x1="240" y1="40" x2="40" y2="160" stroke="#6D28D9" stroke-width="1.5" stroke-dasharray="6,3"/>

  <circle cx="140" cy="100" r="3" fill="#6D28D9"/>

  <!-- Perpendicular mark at center -->
  <rect x="134" y="94" width="6" height="6" fill="none" stroke="#6D28D9" stroke-width="1.5" transform="rotate(45, 137, 97)"/>
</svg>