<svg viewBox="0 0 240 240" class="w-full max-w-[220px] mx-auto my-2" xmlns="http://www.w3.org/2000/svg">
  <rect x="30" y="30" width="180" height="180" fill="#1E104E" fill-opacity="0.08" stroke="#1E104E" stroke-width="2.5"/>

  <circle cx="30" cy="30" r="3" fill="#1E104E"/>
  <circle cx="210" cy="30" r="3" fill="#1E104E"/>
  <circle cx="210" cy="210" r="3" fill="#1E104E"/>
  <circle cx="30" cy="210" r="3" fill="#1E104E"/>

  <text x="18" y="22" font-size="14" fill="#1E104E" font-weight="bold" text-anchor="middle" dominant-baseline="central">A</text>
  <text x="222" y="22" font-size="14" fill="#1E104E" font-weight="bold" text-anchor="middle" dominant-baseline="central">B</text>
  <text x="222" y="226" font-size="14" fill="#1E104E" font-weight="bold" text-anchor="middle" dominant-baseline="central">C</text>
  <text x="18" y="226" font-size="14" fill="#1E104E" font-weight="bold" text-anchor="middle" dominant-baseline="central">D</text>

  <!-- Right angle marks -->
  <rect x="30" y="30" width="12" height="12" fill="none" stroke="#FF653F" stroke-width="2"/>
  <rect x="208" y="30" width="12" height="12" fill="none" stroke="#FF653F" stroke-width="2"/>
  <rect x="208" y="198" width="12" height="12" fill="none" stroke="#FF653F" stroke-width="2"/>
  <rect x="30" y="198" width="12" height="12" fill="none" stroke="#FF653F" stroke-width="2"/>

  <!-- Equal sides -->
  <text x="120" y="20" font-size="11" fill="#FF653F" font-weight="bold" text-anchor="middle" dominant-baseline="central">AB</text>
  <text x="222" y="125" font-size="11" fill="#FF653F" font-weight="bold" text-anchor="middle" dominant-baseline="central">BC</text>
  <text x="120" y="226" font-size="11" fill="#FF653F" font-weight="bold" text-anchor="middle" dominant-baseline="central">CD</text>
  <text x="18" y="125" font-size="11" fill="#FF653F" font-weight="bold" text-anchor="middle" dominant-baseline="central">DA</text>

  <!-- Diagonals -->
  <line x1="30" y1="30" x2="210" y2="210" stroke="#6D28D9" stroke-width="1.5" stroke-dasharray="6,3"/>
  <line x1="210" y1="30" x2="30" y2="210" stroke="#6D28D9" stroke-width="1.5" stroke-dasharray="6,3"/>

  <circle cx="120" cy="120" r="3" fill="#6D28D9"/>

  <!-- Perpendicular mark at center -->
  <line x1="120" y1="115" x2="120" y2="125" stroke="#6D28D9" stroke-width="1.5"/>
  <line x1="115" y1="120" x2="125" y2="120" stroke="#6D28D9" stroke-width="1.5"/>

  <text x="100" y="80" font-size="10" fill="#6D28D9" font-weight="bold" text-anchor="middle" dominant-baseline="central">AC ⊥ BD</text>
</svg>