<svg viewBox="0 0 280 320" class="w-full max-w-[200px] mx-auto my-2" xmlns="http://www.w3.org/2000/svg">
  <rect x="10" y="10" width="260" height="300" rx="16" fill="#f8f8f8" stroke="#1E104E" stroke-width="2"/>
  <rect x="30" y="25" width="220" height="40" rx="6" fill="#d1d5db" stroke="#9ca3af" stroke-width="1"/>
  <text x="240" y="52" text-anchor="end" font-size="16" font-family="monospace" fill="#1E104E">0</text>
  <rect x="30" y="80" width="40" height="28" rx="4" fill="#ef4444"/>
  <text x="50" y="99" text-anchor="middle" font-size="8" font-weight="bold" fill="white">ON</text>
  <rect x="75" y="80" width="40" height="28" rx="4" fill="#9ca3af"/>
  <text x="95" y="99" text-anchor="middle" font-size="8" font-weight="bold" fill="white">OFF</text>
  <rect x="120" y="80" width="40" height="28" rx="4" fill="#3b82f6"/>
  <text x="140" y="99" text-anchor="middle" font-size="8" font-weight="bold" fill="white">M+</text>
  <rect x="165" y="80" width="40" height="28" rx="4" fill="#3b82f6"/>
  <text x="185" y="99" text-anchor="middle" font-size="8" font-weight="bold" fill="white">M−</text>
  <rect x="210" y="80" width="40" height="28" rx="4" fill="#9ca3af"/>
  <text x="230" y="99" text-anchor="middle" font-size="8" fill="white">MRC</text>
  <rect x="30" y="118" width="52" height="30" rx="4" fill="#9ca3af"/>
  <text x="56" y="138" text-anchor="middle" font-size="12" fill="white">7</text>
  <rect x="86" y="118" width="52" height="30" rx="4" fill="#9ca3af"/>
  <text x="112" y="138" text-anchor="middle" font-size="12" fill="white">8</text>
  <rect x="142" y="118" width="52" height="30" rx="4" fill="#9ca3af"/>
  <text x="168" y="138" text-anchor="middle" font-size="12" fill="white">9</text>
  <rect x="198" y="118" width="52" height="30" rx="4" fill="#3b82f6"/>
  <text x="224" y="138" text-anchor="middle" font-size="12" fill="white">÷</text>
  <rect x="30" y="156" width="52" height="30" rx="4" fill="#9ca3af"/>
  <text x="56" y="176" text-anchor="middle" font-size="12" fill="white">4</text>
  <rect x="86" y="156" width="52" height="30" rx="4" fill="#9ca3af"/>
  <text x="112" y="176" text-anchor="middle" font-size="12" fill="white">5</text>
  <rect x="142" y="156" width="52" height="30" rx="4" fill="#9ca3af"/>
  <text x="168" y="176" text-anchor="middle" font-size="12" fill="white">6</text>
  <rect x="198" y="156" width="52" height="30" rx="4" fill="#3b82f6"/>
  <text x="224" y="176" text-anchor="middle" font-size="12" fill="white">×</text>
  <rect x="30" y="194" width="52" height="30" rx="4" fill="#9ca3af"/>
  <text x="56" y="214" text-anchor="middle" font-size="12" fill="white">1</text>
  <rect x="86" y="194" width="52" height="30" rx="4" fill="#9ca3af"/>
  <text x="112" y="214" text-anchor="middle" font-size="12" fill="white">2</text>
  <rect x="142" y="194" width="52" height="30" rx="4" fill="#9ca3af"/>
  <text x="168" y="214" text-anchor="middle" font-size="12" fill="white">3</text>
  <rect x="198" y="194" width="52" height="30" rx="4" fill="#3b82f6"/>
  <text x="224" y="214" text-anchor="middle" font-size="12" fill="white">−</text>
  <rect x="30" y="232" width="52" height="30" rx="4" fill="#9ca3af"/>
  <text x="56" y="252" text-anchor="middle" font-size="12" fill="white">0</text>
  <rect x="86" y="232" width="52" height="30" rx="4" fill="#9ca3af"/>
  <text x="112" y="252" text-anchor="middle" font-size="12" fill="white">.</text>
  <rect x="142" y="232" width="52" height="30" rx="4" fill="#3b82f6"/>
  <text x="168" y="252" text-anchor="middle" font-size="11" fill="white">%</text>
  <rect x="198" y="232" width="52" height="30" rx="4" fill="#3b82f6"/>
  <text x="224" y="252" text-anchor="middle" font-size="12" fill="white">+</text>
  <rect x="30" y="270" width="220" height="30" rx="4" fill="#FF653F"/>
  <text x="140" y="290" text-anchor="middle" font-size="12" font-weight="bold" fill="white">=</text>
</svg>