<svg viewBox="0 0 280 320" class="w-full max-w-[200px] mx-auto my-2" xmlns="http://www.w3.org/2000/svg">
  <rect x="10" y="10" width="260" height="300" rx="16" fill="#f8f8f8" stroke="#1E104E" stroke-width="2"/>
  <rect x="30" y="25" width="220" height="40" rx="6" fill="#d1d5db" stroke="#9ca3af" stroke-width="1"/>
  <text x="240" y="52" text-anchor="end" font-size="16" font-family="monospace" fill="#1E104E">0</text>
  <rect x="30" y="80" width="36" height="28" rx="4" fill="#ef4444"/>
  <text x="48" y="99" text-anchor="middle" font-size="9" font-weight="bold" fill="white">ON</text>
  <rect x="72" y="80" width="36" height="28" rx="4" fill="#9ca3af"/>
  <text x="90" y="99" text-anchor="middle" font-size="8" font-weight="bold" fill="white">OFF</text>
  <rect x="114" y="80" width="36" height="28" rx="4" fill="#3b82f6"/>
  <text x="132" y="99" text-anchor="middle" font-size="8" font-weight="bold" fill="white">M+</text>
  <rect x="156" y="80" width="36" height="28" rx="4" fill="#3b82f6"/>
  <text x="174" y="99" text-anchor="middle" font-size="8" font-weight="bold" fill="white">M−</text>
  <rect x="198" y="80" width="52" height="28" rx="4" fill="#9ca3af"/>
  <text x="224" y="99" text-anchor="middle" font-size="8" fill="white">MRC</text>
  <rect x="30" y="118" width="45" height="30" rx="4" fill="#9ca3af"/>
  <text x="52" y="138" text-anchor="middle" font-size="12" fill="white">7</text>
  <rect x="82" y="118" width="45" height="30" rx="4" fill="#9ca3af"/>
  <text x="104" y="138" text-anchor="middle" font-size="12" fill="white">8</text>
  <rect x="134" y="118" width="45" height="30" rx="4" fill="#9ca3af"/>
  <text x="156" y="138" text-anchor="middle" font-size="12" fill="white">9</text>
  <rect x="186" y="118" width="45" height="30" rx="4" fill="#3b82f6"/>
  <text x="208" y="138" text-anchor="middle" font-size="12" fill="white">÷</text>
  <rect x="30" y="156" width="45" height="30" rx="4" fill="#9ca3af"/>
  <text x="52" y="176" text-anchor="middle" font-size="12" fill="white">4</text>
  <rect x="82" y="156" width="45" height="30" rx="4" fill="#9ca3af"/>
  <text x="104" y="176" text-anchor="middle" font-size="12" fill="white">5</text>
  <rect x="134" y="156" width="45" height="30" rx="4" fill="#9ca3af"/>
  <text x="156" y="176" text-anchor="middle" font-size="12" fill="white">6</text>
  <rect x="186" y="156" width="45" height="30" rx="4" fill="#3b82f6"/>
  <text x="208" y="176" text-anchor="middle" font-size="12" fill="white">×</text>
  <rect x="30" y="194" width="45" height="30" rx="4" fill="#9ca3af"/>
  <text x="52" y="214" text-anchor="middle" font-size="12" fill="white">1</text>
  <rect x="82" y="194" width="45" height="30" rx="4" fill="#9ca3af"/>
  <text x="104" y="214" text-anchor="middle" font-size="12" fill="white">2</text>
  <rect x="134" y="194" width="45" height="30" rx="4" fill="#9ca3af"/>
  <text x="156" y="214" text-anchor="middle" font-size="12" fill="white">3</text>
  <rect x="186" y="194" width="45" height="30" rx="4" fill="#3b82f6"/>
  <text x="208" y="214" text-anchor="middle" font-size="12" fill="white">−</text>
  <rect x="30" y="232" width="45" height="30" rx="4" fill="#9ca3af"/>
  <text x="52" y="252" text-anchor="middle" font-size="12" fill="white">0</text>
  <rect x="82" y="232" width="45" height="30" rx="4" fill="#9ca3af"/>
  <text x="104" y="252" text-anchor="middle" font-size="12" fill="white">.</text>
  <rect x="134" y="232" width="45" height="30" rx="4" fill="#3b82f6"/>
  <text x="156" y="252" text-anchor="middle" font-size="11" fill="white">%</text>
  <rect x="186" y="232" width="45" height="30" rx="4" fill="#3b82f6"/>
  <text x="208" y="252" text-anchor="middle" font-size="12" fill="white">+</text>
  <rect x="30" y="270" width="201" height="30" rx="4" fill="#FF653F"/>
  <text x="130" y="290" text-anchor="middle" font-size="12" font-weight="bold" fill="white">=</text>
</svg>